<svg t="1617252999600" class="icon" viewBox="0 0 1024 1024" version="1.1" xmlns="http://www.w3.org/2000/svg" p-id="2008" width="200" height="200"><path d="M937.0624 527.7184l-406.3744-406.7328c-5.8368-5.8368-13.6704-9.216-21.8624-9.0112-8.2432 0.0512-15.9744 3.2768-21.76 9.1648L87.5008 526.848a20.52096 20.52096 0 0 0 0.2048 28.9792 20.52096 20.52096 0 0 0 28.9792-0.2048L178.176 493.2096v383.8464c0 17.2544 13.7728 31.3344 30.72 31.3344h176.896c16.9472 0 30.72-14.08 30.72-31.3344v-215.1936h184.832v215.1936c0 17.2544 13.7728 31.3344 30.72 31.3344H808.96c16.9472 0 30.72-14.08 30.72-31.3344V488.1408l68.4544 68.5056c3.9936 3.9936 9.216 5.9904 14.4896 5.9904 5.2224 0 10.496-1.9968 14.4896-5.9904a20.5056 20.5056 0 0 0-0.0512-28.928z" fill="#9AD2FF" p-id="2009"></path></svg>