<svg t="1617358425577" class="icon" viewBox="0 0 1024 1024" version="1.1" xmlns="http://www.w3.org/2000/svg" p-id="3167" width="200" height="200"><path d="M883.756522 777.638957c0 28.538435-17.007304 53.069913-41.538783 65.090782V322.381913a33.391304 33.391304 0 0 0-10.017391-23.81913l-185.967305-182.539131a33.435826 33.435826 0 0 0-23.396173-9.527652H272.829217A74.974609 74.974609 0 0 1 339.099826 66.782609h446.820174A97.947826 97.947826 0 0 1 883.756522 164.641391V777.638957z m-156.627479-488.648348h-67.784347a14.002087 14.002087 0 0 1-14.157913-13.824V208.584348l81.92 80.406261zM700.505043 957.217391H230.778435C189.44 957.217391 155.826087 924.42713 155.826087 884.112696v-637.773913c0-40.292174 33.613913-73.060174 74.952348-73.060174h347.625739v101.888a80.851478 80.851478 0 0 0 80.940522 80.584348h116.090434v528.361739c0 40.292174-33.613913 73.104696-74.930087 73.104695z m85.414957-957.217391H339.099826C271.471304 0 214.817391 47.059478 200.793043 109.701565 137.015652 123.325217 89.043478 179.378087 89.043478 246.361043v637.751653C89.043478 961.224348 152.620522 1024 230.778435 1024h469.704348c67.650783 0 124.304696-47.059478 138.329043-109.701565 63.799652-13.623652 111.749565-69.676522 111.749565-136.681739V164.663652C950.53913 73.861565 876.722087 0 785.92 0z" fill="#fff" p-id="3168"></path></svg>